<svg xmlns="http://www.w3.org/2000/svg" version="1.1" xmlns:xlink="http://www.w3.org/1999/xlink" xmlns:svgjs="http://svgjs.dev/svgjs" width="1366" height="300" preserveAspectRatio="none" viewBox="0 0 1366 300"><g mask="url(&quot;#SvgjsMask1080&quot;)" fill="none"><path d="M-84.21 202.42L-84.21 202.42" stroke="rgba(217, 24, 24, 0.06)" stroke-width="1.5"></path><path d="M-84.21 202.42L-110.38 351.7" stroke="rgba(217, 24, 24, 0.06)" stroke-width="1.5"></path><path d="M-84.21 202.42L110.05 231.8" stroke="rgba(217, 24, 24, 0.06)" stroke-width="1.5"></path><path d="M-84.21 202.42L49.72 370.98" stroke="rgba(217, 24, 24, 0.06)" stroke-width="1.5"></path><path d="M-110.38 351.7L-110.38 351.7" stroke="rgba(217, 24, 24, 0.06)" stroke-width="1.5"></path><path d="M-110.38 351.7L49.72 370.98" stroke="rgba(217, 24, 24, 0.06)" stroke-width="1.5"></path><path d="M-110.38 351.7L110.05 231.8" stroke="rgba(217, 24, 24, 0.06)" stroke-width="1.5"></path><path d="M-110.38 351.7L255.7 366.98" stroke="rgba(217, 24, 24, 0.06)" stroke-width="1.5"></path><path d="M-110.38 351.7L240.46 196.65" stroke="rgba(217, 24, 24, 0.06)" stroke-width="1.5"></path><path d="M-110.38 351.7L396.85 350.4" stroke="rgba(217, 24, 24, 0.06)" stroke-width="1.5"></path><path d="M110.05 231.8L110.05 231.8" stroke="rgba(217, 24, 24, 0.06)" stroke-width="1.5"></path><path d="M110.05 231.8L240.46 196.65" stroke="rgba(217, 24, 24, 0.06)" stroke-width="1.5"></path><path d="M110.05 231.8L49.72 370.98" stroke="rgba(217, 24, 24, 0.06)" stroke-width="1.5"></path><path d="M110.05 231.8L255.7 366.98" stroke="rgba(217, 24, 24, 0.06)" stroke-width="1.5"></path><path d="M110.05 231.8L384.3 232.53" stroke="rgba(217, 24, 24, 0.06)" stroke-width="1.5"></path><path d="M49.72 370.98L49.72 370.98" stroke="rgba(217, 24, 24, 0.06)" stroke-width="1.5"></path><path d="M240.46 196.65L240.46 196.65" stroke="rgba(217, 24, 24, 0.06)" stroke-width="1.5"></path><path d="M240.46 196.65L384.3 232.53" stroke="rgba(217, 24, 24, 0.06)" stroke-width="1.5"></path><path d="M240.46 196.65L255.7 366.98" stroke="rgba(217, 24, 24, 0.06)" stroke-width="1.5"></path><path d="M240.46 196.65L396.85 350.4" stroke="rgba(217, 24, 24, 0.06)" stroke-width="1.5"></path><path d="M240.46 196.65L49.72 370.98" stroke="rgba(217, 24, 24, 0.06)" stroke-width="1.5"></path><path d="M240.46 196.65L522.5 192.58" stroke="rgba(217, 24, 24, 0.06)" stroke-width="1.5"></path><path d="M255.7 366.98L255.7 366.98" stroke="rgba(217, 24, 24, 0.06)" stroke-width="1.5"></path><path d="M255.7 366.98L396.85 350.4" stroke="rgba(217, 24, 24, 0.06)" stroke-width="1.5"></path><path d="M255.7 366.98L384.3 232.53" stroke="rgba(217, 24, 24, 0.06)" stroke-width="1.5"></path><path d="M255.7 366.98L49.72 370.98" stroke="rgba(217, 24, 24, 0.06)" stroke-width="1.5"></path><path d="M384.3 232.53L384.3 232.53" stroke="rgba(217, 24, 24, 0.06)" stroke-width="1.5"></path><path d="M384.3 232.53L396.85 350.4" stroke="rgba(217, 24, 24, 0.06)" stroke-width="1.5"></path><path d="M384.3 232.53L522.5 192.58" stroke="rgba(217, 24, 24, 0.06)" stroke-width="1.5"></path><path d="M396.85 350.4L396.85 350.4" stroke="rgba(217, 24, 24, 0.06)" stroke-width="1.5"></path><path d="M396.85 350.4L509.53 407.34" stroke="rgba(217, 24, 24, 0.06)" stroke-width="1.5"></path><path d="M522.5 192.58L522.5 192.58" stroke="rgba(217, 24, 24, 0.06)" stroke-width="1.5"></path><path d="M522.5 192.58L674.55 195.33" stroke="rgba(217, 24, 24, 0.06)" stroke-width="1.5"></path><path d="M522.5 192.58L396.85 350.4" stroke="rgba(217, 24, 24, 0.06)" stroke-width="1.5"></path><path d="M522.5 192.58L509.53 407.34" stroke="rgba(217, 24, 24, 0.06)" stroke-width="1.5"></path><path d="M509.53 407.34L509.53 407.34" stroke="rgba(217, 24, 24, 0.06)" stroke-width="1.5"></path><path d="M509.53 407.34L675.97 381.68" stroke="rgba(217, 24, 24, 0.06)" stroke-width="1.5"></path><path d="M674.55 195.33L674.55 195.33" stroke="rgba(217, 24, 24, 0.06)" stroke-width="1.5"></path><path d="M674.55 195.33L801 238.02" stroke="rgba(217, 24, 24, 0.06)" stroke-width="1.5"></path><path d="M675.97 381.68L675.97 381.68" stroke="rgba(217, 24, 24, 0.06)" stroke-width="1.5"></path><path d="M675.97 381.68L851.86 398.71" stroke="rgba(217, 24, 24, 0.06)" stroke-width="1.5"></path><path d="M825.44 -101.82L825.44 -101.82" stroke="rgba(217, 24, 24, 0.06)" stroke-width="1.5"></path><path d="M825.44 -101.82L852.79 55.08" stroke="rgba(217, 24, 24, 0.06)" stroke-width="1.5"></path><path d="M825.44 -101.82L1000.61 -70.37" stroke="rgba(217, 24, 24, 0.06)" stroke-width="1.5"></path><path d="M825.44 -101.82L1003.96 84.21" stroke="rgba(217, 24, 24, 0.06)" stroke-width="1.5"></path><path d="M825.44 -101.82L1146.71 -67.88" stroke="rgba(217, 24, 24, 0.06)" stroke-width="1.5"></path><path d="M825.44 -101.82L674.55 195.33" stroke="rgba(217, 24, 24, 0.06)" stroke-width="1.5"></path><path d="M825.44 -101.82L801 238.02" stroke="rgba(217, 24, 24, 0.06)" stroke-width="1.5"></path><path d="M852.79 55.08L852.79 55.08" stroke="rgba(217, 24, 24, 0.06)" stroke-width="1.5"></path><path d="M852.79 55.08L1003.96 84.21" stroke="rgba(217, 24, 24, 0.06)" stroke-width="1.5"></path><path d="M852.79 55.08L801 238.02" stroke="rgba(217, 24, 24, 0.06)" stroke-width="1.5"></path><path d="M801 238.02L801 238.02" stroke="rgba(217, 24, 24, 0.06)" stroke-width="1.5"></path><path d="M801 238.02L966.54 209.33" stroke="rgba(217, 24, 24, 0.06)" stroke-width="1.5"></path><path d="M801 238.02L851.86 398.71" stroke="rgba(217, 24, 24, 0.06)" stroke-width="1.5"></path><path d="M801 238.02L956.66 345.18" stroke="rgba(217, 24, 24, 0.06)" stroke-width="1.5"></path><path d="M851.86 398.71L851.86 398.71" stroke="rgba(217, 24, 24, 0.06)" stroke-width="1.5"></path><path d="M851.86 398.71L956.66 345.18" stroke="rgba(217, 24, 24, 0.06)" stroke-width="1.5"></path><path d="M851.86 398.71L966.54 209.33" stroke="rgba(217, 24, 24, 0.06)" stroke-width="1.5"></path><path d="M1000.61 -70.37L1000.61 -70.37" stroke="rgba(217, 24, 24, 0.06)" stroke-width="1.5"></path><path d="M1000.61 -70.37L1146.71 -67.88" stroke="rgba(217, 24, 24, 0.06)" stroke-width="1.5"></path><path d="M1000.61 -70.37L1003.96 84.21" stroke="rgba(217, 24, 24, 0.06)" stroke-width="1.5"></path><path d="M1003.96 84.21L1003.96 84.21" stroke="rgba(217, 24, 24, 0.06)" stroke-width="1.5"></path><path d="M1003.96 84.21L966.54 209.33" stroke="rgba(217, 24, 24, 0.06)" stroke-width="1.5"></path><path d="M1003.96 84.21L1158.39 76.43" stroke="rgba(217, 24, 24, 0.06)" stroke-width="1.5"></path><path d="M1003.96 84.21L1114.36 216.41" stroke="rgba(217, 24, 24, 0.06)" stroke-width="1.5"></path><path d="M966.54 209.33L966.54 209.33" stroke="rgba(217, 24, 24, 0.06)" stroke-width="1.5"></path><path d="M966.54 209.33L956.66 345.18" stroke="rgba(217, 24, 24, 0.06)" stroke-width="1.5"></path><path d="M966.54 209.33L1114.36 216.41" stroke="rgba(217, 24, 24, 0.06)" stroke-width="1.5"></path><path d="M956.66 345.18L956.66 345.18" stroke="rgba(217, 24, 24, 0.06)" stroke-width="1.5"></path><path d="M956.66 345.18L1125.94 385.78" stroke="rgba(217, 24, 24, 0.06)" stroke-width="1.5"></path><path d="M956.66 345.18L1114.36 216.41" stroke="rgba(217, 24, 24, 0.06)" stroke-width="1.5"></path><path d="M1146.71 -67.88L1146.71 -67.88" stroke="rgba(217, 24, 24, 0.06)" stroke-width="1.5"></path><path d="M1146.71 -67.88L1158.39 76.43" stroke="rgba(217, 24, 24, 0.06)" stroke-width="1.5"></path><path d="M1146.71 -67.88L1003.96 84.21" stroke="rgba(217, 24, 24, 0.06)" stroke-width="1.5"></path><path d="M1158.39 76.43L1158.39 76.43" stroke="rgba(217, 24, 24, 0.06)" stroke-width="1.5"></path><path d="M1158.39 76.43L1114.36 216.41" stroke="rgba(217, 24, 24, 0.06)" stroke-width="1.5"></path><path d="M1158.39 76.43L1296 209.91" stroke="rgba(217, 24, 24, 0.06)" stroke-width="1.5"></path><path d="M1158.39 76.43L1000.61 -70.37" stroke="rgba(217, 24, 24, 0.06)" stroke-width="1.5"></path><path d="M1158.39 76.43L966.54 209.33" stroke="rgba(217, 24, 24, 0.06)" stroke-width="1.5"></path><path d="M1114.36 216.41L1114.36 216.41" stroke="rgba(217, 24, 24, 0.06)" stroke-width="1.5"></path><path d="M1114.36 216.41L1125.94 385.78" stroke="rgba(217, 24, 24, 0.06)" stroke-width="1.5"></path><path d="M1125.94 385.78L1125.94 385.78" stroke="rgba(217, 24, 24, 0.06)" stroke-width="1.5"></path><path d="M1125.94 385.78L1244.82 412.33" stroke="rgba(217, 24, 24, 0.06)" stroke-width="1.5"></path><path d="M1125.94 385.78L966.54 209.33" stroke="rgba(217, 24, 24, 0.06)" stroke-width="1.5"></path><path d="M1125.94 385.78L1296 209.91" stroke="rgba(217, 24, 24, 0.06)" stroke-width="1.5"></path><path d="M1125.94 385.78L851.86 398.71" stroke="rgba(217, 24, 24, 0.06)" stroke-width="1.5"></path><path d="M1296 209.91L1296 209.91" stroke="rgba(217, 24, 24, 0.06)" stroke-width="1.5"></path><path d="M1296 209.91L1421.66 194.67" stroke="rgba(217, 24, 24, 0.06)" stroke-width="1.5"></path><path d="M1296 209.91L1114.36 216.41" stroke="rgba(217, 24, 24, 0.06)" stroke-width="1.5"></path><path d="M1296 209.91L1424.25 72.15" stroke="rgba(217, 24, 24, 0.06)" stroke-width="1.5"></path><path d="M1244.82 412.33L1244.82 412.33" stroke="rgba(217, 24, 24, 0.06)" stroke-width="1.5"></path><path d="M1244.82 412.33L1435.56 408.62" stroke="rgba(217, 24, 24, 0.06)" stroke-width="1.5"></path><path d="M1244.82 412.33L1296 209.91" stroke="rgba(217, 24, 24, 0.06)" stroke-width="1.5"></path><path d="M1244.82 412.33L1114.36 216.41" stroke="rgba(217, 24, 24, 0.06)" stroke-width="1.5"></path><path d="M1244.82 412.33L1421.66 194.67" stroke="rgba(217, 24, 24, 0.06)" stroke-width="1.5"></path><path d="M1244.82 412.33L956.66 345.18" stroke="rgba(217, 24, 24, 0.06)" stroke-width="1.5"></path><path d="M1424.25 72.15L1424.25 72.15" stroke="rgba(217, 24, 24, 0.06)" stroke-width="1.5"></path><path d="M1424.25 72.15L1421.66 194.67" stroke="rgba(217, 24, 24, 0.06)" stroke-width="1.5"></path><path d="M1424.25 72.15L1547.08 76.74" stroke="rgba(217, 24, 24, 0.06)" stroke-width="1.5"></path><path d="M1424.25 72.15L1590.18 -71.44" stroke="rgba(217, 24, 24, 0.06)" stroke-width="1.5"></path><path d="M1424.25 72.15L1591.32 257.18" stroke="rgba(217, 24, 24, 0.06)" stroke-width="1.5"></path><path d="M1421.66 194.67L1421.66 194.67" stroke="rgba(217, 24, 24, 0.06)" stroke-width="1.5"></path><path d="M1421.66 194.67L1547.08 76.74" stroke="rgba(217, 24, 24, 0.06)" stroke-width="1.5"></path><path d="M1421.66 194.67L1591.32 257.18" stroke="rgba(217, 24, 24, 0.06)" stroke-width="1.5"></path><path d="M1421.66 194.67L1572.08 340.41" stroke="rgba(217, 24, 24, 0.06)" stroke-width="1.5"></path><path d="M1421.66 194.67L1435.56 408.62" stroke="rgba(217, 24, 24, 0.06)" stroke-width="1.5"></path><path d="M1435.56 408.62L1435.56 408.62" stroke="rgba(217, 24, 24, 0.06)" stroke-width="1.5"></path><path d="M1435.56 408.62L1572.08 340.41" stroke="rgba(217, 24, 24, 0.06)" stroke-width="1.5"></path><path d="M1590.18 -71.44L1590.18 -71.44" stroke="rgba(217, 24, 24, 0.06)" stroke-width="1.5"></path><path d="M1590.18 -71.44L1547.08 76.74" stroke="rgba(217, 24, 24, 0.06)" stroke-width="1.5"></path><path d="M1590.18 -71.44L1421.66 194.67" stroke="rgba(217, 24, 24, 0.06)" stroke-width="1.5"></path><path d="M1590.18 -71.44L1591.32 257.18" stroke="rgba(217, 24, 24, 0.06)" stroke-width="1.5"></path><path d="M1590.18 -71.44L1296 209.91" stroke="rgba(217, 24, 24, 0.06)" stroke-width="1.5"></path><path d="M1590.18 -71.44L1572.08 340.41" stroke="rgba(217, 24, 24, 0.06)" stroke-width="1.5"></path><path d="M1547.08 76.74L1547.08 76.74" stroke="rgba(217, 24, 24, 0.06)" stroke-width="1.5"></path><path d="M1591.32 257.18L1591.32 257.18" stroke="rgba(217, 24, 24, 0.06)" stroke-width="1.5"></path><path d="M1591.32 257.18L1572.08 340.41" stroke="rgba(217, 24, 24, 0.06)" stroke-width="1.5"></path><path d="M1591.32 257.18L1547.08 76.74" stroke="rgba(217, 24, 24, 0.06)" stroke-width="1.5"></path><path d="M1572.08 340.41L1572.08 340.41" stroke="rgba(217, 24, 24, 0.06)" stroke-width="1.5"></path><path d="M1572.08 340.41L1547.08 76.74" stroke="rgba(217, 24, 24, 0.06)" stroke-width="1.5"></path><path d="M1572.08 340.41L1296 209.91" stroke="rgba(217, 24, 24, 0.06)" stroke-width="1.5"></path><path d="M1572.08 340.41L1424.25 72.15" stroke="rgba(217, 24, 24, 0.06)" stroke-width="1.5"></path><circle r="5" cx="-84.21" cy="202.42" fill="rgba(217, 24, 24, 0.06)"></circle><circle r="5" cx="-110.38" cy="351.7" fill="rgba(217, 24, 24, 0.06)"></circle><circle r="5" cx="110.05" cy="231.8" fill="rgba(217, 24, 24, 0.06)"></circle><circle r="5" cx="49.72" cy="370.98" fill="rgba(217, 24, 24, 0.06)"></circle><circle r="5" cx="240.46" cy="196.65" fill="rgba(217, 24, 24, 0.06)"></circle><circle r="5" cx="255.7" cy="366.98" fill="rgba(217, 24, 24, 0.06)"></circle><circle r="5" cx="384.3" cy="232.53" fill="rgba(217, 24, 24, 0.06)"></circle><circle r="5" cx="396.85" cy="350.4" fill="rgba(217, 24, 24, 0.06)"></circle><circle r="5" cx="522.5" cy="192.58" fill="rgba(217, 24, 24, 0.06)"></circle><circle r="5" cx="509.53" cy="407.34" fill="rgba(217, 24, 24, 0.06)"></circle><circle r="5" cx="674.55" cy="195.33" fill="rgba(217, 24, 24, 0.06)"></circle><circle r="5" cx="675.97" cy="381.68" fill="rgba(217, 24, 24, 0.06)"></circle><circle r="5" cx="825.44" cy="-101.82" fill="rgba(217, 24, 24, 0.06)"></circle><circle r="5" cx="852.79" cy="55.08" fill="rgba(217, 24, 24, 0.06)"></circle><circle r="5" cx="801" cy="238.02" fill="rgba(217, 24, 24, 0.06)"></circle><circle r="5" cx="851.86" cy="398.71" fill="rgba(217, 24, 24, 0.06)"></circle><circle r="5" cx="1000.61" cy="-70.37" fill="rgba(217, 24, 24, 0.06)"></circle><circle r="5" cx="1003.96" cy="84.21" fill="rgba(217, 24, 24, 0.06)"></circle><circle r="5" cx="966.54" cy="209.33" fill="rgba(217, 24, 24, 0.06)"></circle><circle r="5" cx="956.66" cy="345.18" fill="rgba(217, 24, 24, 0.06)"></circle><circle r="5" cx="1146.71" cy="-67.88" fill="rgba(217, 24, 24, 0.06)"></circle><circle r="5" cx="1158.39" cy="76.43" fill="rgba(217, 24, 24, 0.06)"></circle><circle r="5" cx="1114.36" cy="216.41" fill="rgba(217, 24, 24, 0.06)"></circle><circle r="5" cx="1125.94" cy="385.78" fill="rgba(217, 24, 24, 0.06)"></circle><circle r="5" cx="1296" cy="209.91" fill="rgba(217, 24, 24, 0.06)"></circle><circle r="5" cx="1244.82" cy="412.33" fill="rgba(217, 24, 24, 0.06)"></circle><circle r="5" cx="1424.25" cy="72.15" fill="rgba(217, 24, 24, 0.06)"></circle><circle r="5" cx="1421.66" cy="194.67" fill="rgba(217, 24, 24, 0.06)"></circle><circle r="5" cx="1435.56" cy="408.62" fill="rgba(217, 24, 24, 0.06)"></circle><circle r="5" cx="1590.18" cy="-71.44" fill="rgba(217, 24, 24, 0.06)"></circle><circle r="5" cx="1547.08" cy="76.74" fill="rgba(217, 24, 24, 0.06)"></circle><circle r="5" cx="1591.32" cy="257.18" fill="rgba(217, 24, 24, 0.06)"></circle><circle r="5" cx="1572.08" cy="340.41" fill="rgba(217, 24, 24, 0.06)"></circle><path d="M343.73 248.12L343.73 248.12" stroke="hsla(0, 72.4%, 62.7%, 0.2)" stroke-width="1.5"></path><path d="M343.73 248.12L346.58 376.42" stroke="hsla(0, 72.4%, 62.7%, 0.2)" stroke-width="1.5"></path><path d="M343.73 248.12L217.46 395.92" stroke="hsla(0, 72.4%, 62.7%, 0.2)" stroke-width="1.5"></path><path d="M343.73 248.12L552.17 346.49" stroke="hsla(0, 72.4%, 62.7%, 0.2)" stroke-width="1.5"></path><path d="M1128.98 54.32L1128.98 54.32" stroke="hsla(0, 72.4%, 62.7%, 0.2)" stroke-width="1.5"></path><path d="M1128.98 54.32L1099.66 224.35" stroke="hsla(0, 72.4%, 62.7%, 0.2)" stroke-width="1.5"></path><path d="M1128.98 54.32L1302.59 90.79" stroke="hsla(0, 72.4%, 62.7%, 0.2)" stroke-width="1.5"></path><path d="M1128.98 54.32L1274.54 208.75" stroke="hsla(0, 72.4%, 62.7%, 0.2)" stroke-width="1.5"></path><path d="M1128.98 54.32L1009.44 255.66" stroke="hsla(0, 72.4%, 62.7%, 0.2)" stroke-width="1.5"></path><path d="M1128.98 54.32L1389.62 65.6" stroke="hsla(0, 72.4%, 62.7%, 0.2)" stroke-width="1.5"></path><path d="M1274.54 208.75L1274.54 208.75" stroke="hsla(0, 72.4%, 62.7%, 0.2)" stroke-width="1.5"></path><path d="M1274.54 208.75L1302.59 90.79" stroke="hsla(0, 72.4%, 62.7%, 0.2)" stroke-width="1.5"></path><path d="M1274.54 208.75L1253 351.66" stroke="hsla(0, 72.4%, 62.7%, 0.2)" stroke-width="1.5"></path><path d="M1274.54 208.75L1440.32 236.52" stroke="hsla(0, 72.4%, 62.7%, 0.2)" stroke-width="1.5"></path><path d="M1566.18 -98.25L1566.18 -98.25" stroke="hsla(0, 72.4%, 62.7%, 0.2)" stroke-width="1.5"></path><path d="M1566.18 -98.25L1430.35 -69.75" stroke="hsla(0, 72.4%, 62.7%, 0.2)" stroke-width="1.5"></path><path d="M1566.18 -98.25L1546.16 83.94" stroke="hsla(0, 72.4%, 62.7%, 0.2)" stroke-width="1.5"></path><path d="M1566.18 -98.25L1389.62 65.6" stroke="hsla(0, 72.4%, 62.7%, 0.2)" stroke-width="1.5"></path><path d="M1566.18 -98.25L1302.59 90.79" stroke="hsla(0, 72.4%, 62.7%, 0.2)" stroke-width="1.5"></path><path d="M1566.18 -98.25L1440.32 236.52" stroke="hsla(0, 72.4%, 62.7%, 0.2)" stroke-width="1.5"></path><path d="M1566.18 -98.25L1603.68 258.89" stroke="hsla(0, 72.4%, 62.7%, 0.2)" stroke-width="1.5"></path><path d="M1546.16 83.94L1546.16 83.94" stroke="hsla(0, 72.4%, 62.7%, 0.2)" stroke-width="1.5"></path><path d="M1546.16 83.94L1389.62 65.6" stroke="hsla(0, 72.4%, 62.7%, 0.2)" stroke-width="1.5"></path><path d="M1546.16 83.94L1603.68 258.89" stroke="hsla(0, 72.4%, 62.7%, 0.2)" stroke-width="1.5"></path><path d="M1546.16 83.94L1440.32 236.52" stroke="hsla(0, 72.4%, 62.7%, 0.2)" stroke-width="1.5"></path><path d="M1546.16 83.94L1430.35 -69.75" stroke="hsla(0, 72.4%, 62.7%, 0.2)" stroke-width="1.5"></path><path d="M1546.16 83.94L1302.59 90.79" stroke="hsla(0, 72.4%, 62.7%, 0.2)" stroke-width="1.5"></path><path d="M-110.55 361.71L-110.55 361.71" stroke="hsla(0, 72.4%, 62.7%, 0.2)" stroke-width="1.5"></path><path d="M-110.55 361.71L67.95 380.7" stroke="hsla(0, 72.4%, 62.7%, 0.2)" stroke-width="1.5"></path><path d="M-110.55 361.71L217.46 395.92" stroke="hsla(0, 72.4%, 62.7%, 0.2)" stroke-width="1.5"></path><path d="M67.95 380.7L67.95 380.7" stroke="hsla(0, 72.4%, 62.7%, 0.2)" stroke-width="1.5"></path><path d="M67.95 380.7L217.46 395.92" stroke="hsla(0, 72.4%, 62.7%, 0.2)" stroke-width="1.5"></path><path d="M67.95 380.7L346.58 376.42" stroke="hsla(0, 72.4%, 62.7%, 0.2)" stroke-width="1.5"></path><path d="M67.95 380.7L343.73 248.12" stroke="hsla(0, 72.4%, 62.7%, 0.2)" stroke-width="1.5"></path><path d="M67.95 380.7L552.17 346.49" stroke="hsla(0, 72.4%, 62.7%, 0.2)" stroke-width="1.5"></path><path d="M217.46 395.92L217.46 395.92" stroke="hsla(0, 72.4%, 62.7%, 0.2)" stroke-width="1.5"></path><path d="M217.46 395.92L346.58 376.42" stroke="hsla(0, 72.4%, 62.7%, 0.2)" stroke-width="1.5"></path><path d="M346.58 376.42L346.58 376.42" stroke="hsla(0, 72.4%, 62.7%, 0.2)" stroke-width="1.5"></path><path d="M346.58 376.42L552.17 346.49" stroke="hsla(0, 72.4%, 62.7%, 0.2)" stroke-width="1.5"></path><path d="M346.58 376.42L711.78 340.83" stroke="hsla(0, 72.4%, 62.7%, 0.2)" stroke-width="1.5"></path><path d="M346.58 376.42L704.12 208.49" stroke="hsla(0, 72.4%, 62.7%, 0.2)" stroke-width="1.5"></path><path d="M552.17 346.49L552.17 346.49" stroke="hsla(0, 72.4%, 62.7%, 0.2)" stroke-width="1.5"></path><path d="M552.17 346.49L711.78 340.83" stroke="hsla(0, 72.4%, 62.7%, 0.2)" stroke-width="1.5"></path><path d="M552.17 346.49L704.12 208.49" stroke="hsla(0, 72.4%, 62.7%, 0.2)" stroke-width="1.5"></path><path d="M552.17 346.49L797.25 370.37" stroke="hsla(0, 72.4%, 62.7%, 0.2)" stroke-width="1.5"></path><path d="M704.12 208.49L704.12 208.49" stroke="hsla(0, 72.4%, 62.7%, 0.2)" stroke-width="1.5"></path><path d="M704.12 208.49L810.74 217.56" stroke="hsla(0, 72.4%, 62.7%, 0.2)" stroke-width="1.5"></path><path d="M704.12 208.49L711.78 340.83" stroke="hsla(0, 72.4%, 62.7%, 0.2)" stroke-width="1.5"></path><path d="M704.12 208.49L797.25 370.37" stroke="hsla(0, 72.4%, 62.7%, 0.2)" stroke-width="1.5"></path><path d="M711.78 340.83L711.78 340.83" stroke="hsla(0, 72.4%, 62.7%, 0.2)" stroke-width="1.5"></path><path d="M711.78 340.83L797.25 370.37" stroke="hsla(0, 72.4%, 62.7%, 0.2)" stroke-width="1.5"></path><path d="M711.78 340.83L810.74 217.56" stroke="hsla(0, 72.4%, 62.7%, 0.2)" stroke-width="1.5"></path><path d="M810.74 217.56L810.74 217.56" stroke="hsla(0, 72.4%, 62.7%, 0.2)" stroke-width="1.5"></path><path d="M810.74 217.56L797.25 370.37" stroke="hsla(0, 72.4%, 62.7%, 0.2)" stroke-width="1.5"></path><path d="M810.74 217.56L972.33 338.79" stroke="hsla(0, 72.4%, 62.7%, 0.2)" stroke-width="1.5"></path><path d="M810.74 217.56L1009.44 255.66" stroke="hsla(0, 72.4%, 62.7%, 0.2)" stroke-width="1.5"></path><path d="M797.25 370.37L797.25 370.37" stroke="hsla(0, 72.4%, 62.7%, 0.2)" stroke-width="1.5"></path><path d="M1009.44 255.66L1009.44 255.66" stroke="hsla(0, 72.4%, 62.7%, 0.2)" stroke-width="1.5"></path><path d="M1009.44 255.66L972.33 338.79" stroke="hsla(0, 72.4%, 62.7%, 0.2)" stroke-width="1.5"></path><path d="M1009.44 255.66L1099.66 224.35" stroke="hsla(0, 72.4%, 62.7%, 0.2)" stroke-width="1.5"></path><path d="M1009.44 255.66L1154.96 382.02" stroke="hsla(0, 72.4%, 62.7%, 0.2)" stroke-width="1.5"></path><path d="M1009.44 255.66L797.25 370.37" stroke="hsla(0, 72.4%, 62.7%, 0.2)" stroke-width="1.5"></path><path d="M972.33 338.79L972.33 338.79" stroke="hsla(0, 72.4%, 62.7%, 0.2)" stroke-width="1.5"></path><path d="M972.33 338.79L1099.66 224.35" stroke="hsla(0, 72.4%, 62.7%, 0.2)" stroke-width="1.5"></path><path d="M972.33 338.79L797.25 370.37" stroke="hsla(0, 72.4%, 62.7%, 0.2)" stroke-width="1.5"></path><path d="M972.33 338.79L1154.96 382.02" stroke="hsla(0, 72.4%, 62.7%, 0.2)" stroke-width="1.5"></path><path d="M1099.66 224.35L1099.66 224.35" stroke="hsla(0, 72.4%, 62.7%, 0.2)" stroke-width="1.5"></path><path d="M1099.66 224.35L1154.96 382.02" stroke="hsla(0, 72.4%, 62.7%, 0.2)" stroke-width="1.5"></path><path d="M1154.96 382.02L1154.96 382.02" stroke="hsla(0, 72.4%, 62.7%, 0.2)" stroke-width="1.5"></path><path d="M1154.96 382.02L1253 351.66" stroke="hsla(0, 72.4%, 62.7%, 0.2)" stroke-width="1.5"></path><path d="M1302.59 90.79L1302.59 90.79" stroke="hsla(0, 72.4%, 62.7%, 0.2)" stroke-width="1.5"></path><path d="M1302.59 90.79L1389.62 65.6" stroke="hsla(0, 72.4%, 62.7%, 0.2)" stroke-width="1.5"></path><path d="M1253 351.66L1253 351.66" stroke="hsla(0, 72.4%, 62.7%, 0.2)" stroke-width="1.5"></path><path d="M1253 351.66L1434.45 358.22" stroke="hsla(0, 72.4%, 62.7%, 0.2)" stroke-width="1.5"></path><path d="M1253 351.66L1099.66 224.35" stroke="hsla(0, 72.4%, 62.7%, 0.2)" stroke-width="1.5"></path><path d="M1253 351.66L1440.32 236.52" stroke="hsla(0, 72.4%, 62.7%, 0.2)" stroke-width="1.5"></path><path d="M1430.35 -69.75L1430.35 -69.75" stroke="hsla(0, 72.4%, 62.7%, 0.2)" stroke-width="1.5"></path><path d="M1430.35 -69.75L1389.62 65.6" stroke="hsla(0, 72.4%, 62.7%, 0.2)" stroke-width="1.5"></path><path d="M1430.35 -69.75L1302.59 90.79" stroke="hsla(0, 72.4%, 62.7%, 0.2)" stroke-width="1.5"></path><path d="M1389.62 65.6L1389.62 65.6" stroke="hsla(0, 72.4%, 62.7%, 0.2)" stroke-width="1.5"></path><path d="M1389.62 65.6L1440.32 236.52" stroke="hsla(0, 72.4%, 62.7%, 0.2)" stroke-width="1.5"></path><path d="M1389.62 65.6L1274.54 208.75" stroke="hsla(0, 72.4%, 62.7%, 0.2)" stroke-width="1.5"></path><path d="M1440.32 236.52L1440.32 236.52" stroke="hsla(0, 72.4%, 62.7%, 0.2)" stroke-width="1.5"></path><path d="M1440.32 236.52L1434.45 358.22" stroke="hsla(0, 72.4%, 62.7%, 0.2)" stroke-width="1.5"></path><path d="M1440.32 236.52L1603.68 258.89" stroke="hsla(0, 72.4%, 62.7%, 0.2)" stroke-width="1.5"></path><path d="M1434.45 358.22L1434.45 358.22" stroke="hsla(0, 72.4%, 62.7%, 0.2)" stroke-width="1.5"></path><path d="M1603.68 258.89L1603.68 258.89" stroke="hsla(0, 72.4%, 62.7%, 0.2)" stroke-width="1.5"></path><circle r="25" cx="343.73" cy="248.12" fill="url(&quot;#SvgjsRadialGradient1081&quot;)"></circle><circle r="25" cx="1128.98" cy="54.32" fill="url(&quot;#SvgjsRadialGradient1081&quot;)"></circle><circle r="25" cx="1274.54" cy="208.75" fill="url(&quot;#SvgjsRadialGradient1081&quot;)"></circle><circle r="25" cx="1566.18" cy="-98.25" fill="url(&quot;#SvgjsRadialGradient1081&quot;)"></circle><circle r="25" cx="1546.16" cy="83.94" fill="url(&quot;#SvgjsRadialGradient1081&quot;)"></circle><circle r="5" cx="-110.55" cy="361.71" fill="rgba(251, 233, 233, 0.6)"></circle><circle r="5" cx="67.95" cy="380.7" fill="rgba(251, 233, 233, 0.6)"></circle><circle r="5" cx="217.46" cy="395.92" fill="rgba(251, 233, 233, 0.6)"></circle><circle r="5" cx="346.58" cy="376.42" fill="rgba(251, 233, 233, 0.6)"></circle><circle r="5" cx="552.17" cy="346.49" fill="rgba(251, 233, 233, 0.6)"></circle><circle r="5" cx="704.12" cy="208.49" fill="rgba(251, 233, 233, 0.6)"></circle><circle r="5" cx="711.78" cy="340.83" fill="rgba(251, 233, 233, 0.6)"></circle><circle r="5" cx="810.74" cy="217.56" fill="rgba(251, 233, 233, 0.6)"></circle><circle r="5" cx="797.25" cy="370.37" fill="rgba(251, 233, 233, 0.6)"></circle><circle r="5" cx="1009.44" cy="255.66" fill="rgba(251, 233, 233, 0.6)"></circle><circle r="5" cx="972.33" cy="338.79" fill="rgba(251, 233, 233, 0.6)"></circle><circle r="5" cx="1099.66" cy="224.35" fill="rgba(251, 233, 233, 0.6)"></circle><circle r="5" cx="1154.96" cy="382.02" fill="rgba(251, 233, 233, 0.6)"></circle><circle r="5" cx="1302.59" cy="90.79" fill="rgba(251, 233, 233, 0.6)"></circle><circle r="5" cx="1253" cy="351.66" fill="rgba(251, 233, 233, 0.6)"></circle><circle r="5" cx="1430.35" cy="-69.75" fill="rgba(251, 233, 233, 0.6)"></circle><circle r="5" cx="1389.62" cy="65.6" fill="rgba(251, 233, 233, 0.6)"></circle><circle r="5" cx="1440.32" cy="236.52" fill="rgba(251, 233, 233, 0.6)"></circle><circle r="5" cx="1434.45" cy="358.22" fill="rgba(251, 233, 233, 0.6)"></circle><circle r="5" cx="1603.68" cy="258.89" fill="rgba(251, 233, 233, 0.6)"></circle></g><defs><mask id="SvgjsMask1080"><rect width="1366" height="300" fill="#ffffff"></rect></mask><radialGradient id="SvgjsRadialGradient1081"><stop stop-color="#ffffff" offset="0.1"></stop><stop stop-color="rgba(212, 34, 34, 0.2)" offset="0.2"></stop><stop stop-color="rgba(212, 34, 34, 0)" offset="1"></stop></radialGradient></defs></svg>